<svg height='100px' width='100px'  fill="#000000" xmlns="http://www.w3.org/2000/svg" xmlns:xlink="http://www.w3.org/1999/xlink" version="1.1" x="0px" y="0px" viewBox="0 0 100 100" enable-background="new 0 0 100 100" xml:space="preserve"><g><polygon points="59.347,66.227 65.482,66.227 61.436,33.773 57.483,33.773  "></polygon><polygon points="42.517,33.773 38.563,33.773 34.518,66.227 40.653,66.227  "></polygon><polygon points="85.254,66.227 96.785,66.227 79.581,33.773 75.065,33.773  "></polygon><polygon points="69.624,33.773 66.714,33.773 70.761,66.227 79.811,66.227  "></polygon><polygon points="52.231,33.773 50,33.773 47.768,33.773 45.905,66.227 50,66.227 54.095,66.227  "></polygon><polygon points="24.934,33.773 20.418,33.773 3.214,66.227 14.746,66.227  "></polygon><polygon points="20.189,66.227 29.24,66.227 33.285,33.773 30.377,33.773  "></polygon></g></svg>