<?xml version="1.0" encoding="iso-8859-1"?>
<!-- Generator: Adobe Illustrator 21.0.0, SVG Export Plug-In . SVG Version: 6.00 Build 0)  -->
<svg xmlns="http://www.w3.org/2000/svg" xmlns:xlink="http://www.w3.org/1999/xlink" version="1.1" id="Capa_1" x="0px" y="0px" viewBox="0 0 512 512" style="enable-background:new 0 0 512 512;" xml:space="preserve" width="512" height="512">
<g>
	<g>
		<g>
			<g>
				<g>
					<g>
						<g>
							<g>
								<g>
									<g>
										<g>
											<g>
												<g>
													<circle style="fill:#4BB9EC;" cx="256" cy="256" r="256"/>
												</g>
											</g>
										</g>
									</g>
								</g>
							</g>
						</g>
					</g>
				</g>
			</g>
		</g>
	</g>
	<path style="fill:#0095FF;" d="M512,256c0-12.234-0.878-24.261-2.537-36.037L438,148.5l9.24,89.24L358,148.5l4.086,85.086   L277,148.5l-15.046,65.954L196,148.5l-21.402,58.598L116,148.5l-97.576,203L160.5,493.577C190.012,505.451,222.239,512,256,512   C397.385,512,512,397.385,512,256z"/>
	<g>
		<polygon style="fill:#E9EDF5;" points="307,351.5 205,351.5 235,148.5 277,148.5   "/>
	</g>
	<g>
		<polygon style="fill:#CDD2E1;" points="277,148.5 255.905,148.5 255.905,351.5 307,351.5   "/>
	</g>
	<g>
		<polygon style="fill:#CDD2E1;" points="441,351.5 367,351.5 316,148.5 358,148.5   "/>
	</g>
	<g>
		<g>
			<path style="fill:#CDD2E1;" d="M438,148.5h-42l87,203h10.576c9.784-24.315,15.939-50.477,17.805-77.82L438,148.5z"/>
		</g>
		<g>
			<path style="fill:#E9EDF5;" d="M74,148.5L0.619,273.68c1.866,27.343,8.021,53.505,17.805,77.82H29l87-203H74z"/>
		</g>
	</g>
	<g>
		<polygon style="fill:#E9EDF5;" points="71,351.5 145,351.5 196,148.5 154,148.5   "/>
	</g>
</g>















</svg>
