<?xml version="1.0" encoding="utf-8"?>
<!-- Svg Vector Icons : http://www.onlinewebfonts.com/icon -->
<!DOCTYPE svg PUBLIC "-//W3C//DTD SVG 1.1//EN" "http://www.w3.org/Graphics/SVG/1.1/DTD/svg11.dtd">
<svg version="1.1" xmlns="http://www.w3.org/2000/svg" xmlns:xlink="http://www.w3.org/1999/xlink" x="0px" y="0px" viewBox="0 0 1000 1000" enable-background="new 0 0 1000 1000" xml:space="preserve">
<metadata> Svg Vector Icons : http://www.onlinewebfonts.com/icon </metadata>
<g><g><g><polygon points="615.4,697.8 675.9,808.9 796.9,808.9 675.9,697.8 "/><polygon points="456.4,697.8 440,808.9 561,808.9 542.1,697.8 "/><polygon points="204.1,808.9 325.1,808.9 385.6,697.8 325.1,697.8 "/><path d="M978.3,849.2L547.5,99.9c-12.8-22.2-29.5-34.5-47-34.5c-17.8,0-34.9,12.6-48,35.4L21.7,848.7c-13.1,22.7-15.3,45.1-6,61.2c9.1,15.8,28.1,24.6,53.5,24.6h861.6c25.4,0,44.4-8.7,53.6-24.4C993.6,894,991.4,871.8,978.3,849.2z M866.4,868.6h-733c-25.9,0-36.5-18.4-23.6-40.8l367-637.1c12.9-22.4,34.1-22.4,47,0l366.3,637C902.9,850.2,892.3,868.6,866.4,868.6z"/></g><circle cx="471.3" cy="370.6" r="37.9"/><path d="M625.2,778.3c-2.4,1.7-5.2,2.5-7.9,2.5c-4.3,0-8.5-2-11.2-5.8l-68.1-96.3L526.5,619l-39.7,8.1L442.5,676l-16.2,89.8c-1.2,6.6-6.9,11.2-13.4,11.2c-0.8,0-1.6-0.1-2.4-0.2c-7.4-1.3-12.4-8.4-11-15.9l17.6-97.5l64.8-71.5L462.1,494L447.4,530l-67.3,43.6c-2.3,1.5-4.9,2.2-7.4,2.2c-4.5,0-8.9-2.2-11.5-6.2c-4.1-6.3-2.3-14.7,4-18.9l60.1-38.9l31.6-77.1c1.4-4.1,3.9-8.6,13.9-10.6l22-4.5c9.1-1.8,14.2,0.6,18.1,4.4l89.5,74.6l14,76.1c1.4,7.4-3.5,14.5-11,15.9c-0.8,0.2-1.7,0.2-2.5,0.2c-6.5,0-12.2-4.6-13.4-11.2l-12.2-66.3l-48.8-40.2l37.2,194.6l64.7,91.5C632.8,765.4,631.4,773.9,625.2,778.3z"/></g><g></g><g></g><g></g><g></g><g></g><g></g><g></g><g></g><g></g><g></g><g></g><g></g><g></g><g></g><g></g></g>
</svg>