<svg xmlns="http://www.w3.org/2000/svg" xmlns:xlink="http://www.w3.org/1999/xlink" version="1.1" x="0px" y="0px" viewBox="0 0 100 125" enable-background="new 0 0 100 100" xml:space="preserve"><g><g><polygon points="26.52,62.82 17.306,81.809 30.312,81.809 35.247,62.82   "/><polygon points="13.914,62.82 0,81.809 12.681,81.809 22.35,62.82   "/><polygon points="86.087,62.82 77.652,62.82 87.318,81.809 100,81.809   "/><polygon points="64.752,62.82 69.688,81.809 82.693,81.809 73.48,62.82   "/><polygon points="61.18,71.852 53.859,71.945 53.745,62.82 51.932,62.82 52.141,81.809 65.318,81.809 61.079,63.945   "/><polygon points="39.187,62.82 38.632,65.161 40.765,62.82   "/><polygon points="37.375,70.459 34.682,81.809 47.859,81.809 48.037,65.708 40.832,73.609   "/><path d="M56.504,27.371c2.271-1.625,2.801-4.782,1.171-7.061c-1.624-2.271-4.782-2.798-7.059-1.174    c-2.279,1.625-2.802,4.787-1.181,7.06C51.063,28.47,54.223,28.999,56.504,27.371z"/><path d="M51.634,52.191c0.05-0.016,0.104-0.022,0.155-0.043l2.872,5.229l0.171,13.572l5.352-0.067l-0.18-14.243    C60,56.2,59.885,55.77,59.675,55.385l-4.801-8.733l0.959-6.231l0.435,0.72c0.215,0.355,0.527,0.641,0.9,0.822l8.264,3.284    l1.307-2.699l-7.131-4.161l-3.678-6.108c-0.645-0.958-1.66-1.661-2.892-1.851c-1.083-0.165-2.121,0.103-2.972,0.653l-0.008-0.009    c0,0-0.316,0.241-0.433,0.339l-8.052,6.302c-0.402,0.313-0.677,0.76-0.779,1.26l-1.327,9.796l2.937,0.595l2.43-8.766l2.622-2.051    l-1.376,8.932c-0.066,0.429-0.045,0.85,0.013,1.26l0.479,9.175l-9.759,10.702l3.955,3.606l10.511-11.527    c0.482-0.528,0.734-1.229,0.695-1.942L51.634,52.191z"/></g></g><text x="0" y="115" fill="#000000" font-size="5px" font-weight="bold" font-family="'Helvetica Neue', Helvetica, Arial-Unicode, Arial, Sans-serif">Created by Juan Pablo Bravo</text><text x="0" y="120" fill="#000000" font-size="5px" font-weight="bold" font-family="'Helvetica Neue', Helvetica, Arial-Unicode, Arial, Sans-serif">from the Noun Project</text></svg>